<svg version="1.0" xmlns="http://www.w3.org/2000/svg" width="100.000000pt" height="100.000000pt" viewBox="0 0 100.000000 100.000000" preserveAspectRatio="xMidYMid meet">

<g transform="translate(0.000000,100.000000) scale(0.100000,-0.100000)" fill="#000000" stroke="none">
<path d="M344 907 c-9 -23 25 -117 42 -117 8 0 14 8 14 19 0 26 -20 84 -36
100 -11 13 -14 12 -20 -2z" data-index="0" style="visibility: visible;"></path>
<path d="M470 865 c-7 -20 -9 -43 -6 -52 6 -15 8 -15 22 -2 8 9 17 32 21 52 8
50 -21 51 -37 2z" data-index="1" style="visibility: visible;"></path>
<path d="M230 806 c0 -15 58 -56 79 -56 21 0 11 29 -18 49 -34 24 -61 27 -61
7z" data-index="2" style="visibility: visible;"></path>
<path d="M701 771 c-8 -5 -29 -7 -47 -4 -26 4 -35 1 -49 -20 -10 -15 -22 -24
-31 -20 -31 12 -62 -7 -78 -47 l-16 -40 -21 21 c-14 14 -29 19 -47 16 -19 -4
-31 1 -45 20 -15 19 -26 23 -46 19 -14 -2 -40 0 -58 6 -27 10 -35 9 -53 -7
-11 -10 -20 -29 -20 -42 0 -14 -12 -34 -27 -48 l-28 -24 28 -78 c15 -43 27
-82 27 -86 0 -3 -11 -2 -26 3 -21 8 -29 6 -50 -15 -26 -26 -26 -58 0 -80 85
-72 163 -129 191 -141 64 -27 129 -13 192 40 26 22 35 25 58 16 41 -16 102
-12 143 9 46 24 178 135 192 161 21 39 -27 86 -75 74 l-25 -6 25 66 c32 85 31
102 -3 124 -16 9 -27 23 -24 30 2 7 -3 24 -12 37 -17 26 -49 32 -75 16z m49
-46 c0 -8 -13 -51 -30 -97 -34 -94 -37 -111 -13 -106 10 2 24 27 38 68 14 41
28 66 38 68 24 5 21 -20 -12 -108 -28 -72 -30 -75 -62 -76 -58 -1 -65 -3 -88
-25 -32 -30 -12 -49 25 -24 17 11 37 15 54 12 16 -4 49 2 80 14 51 19 80 20
80 0 0 -10 -143 -131 -177 -149 -26 -14 -98 -16 -122 -2 -16 8 -17 15 -9 52 9
38 6 55 -21 134 l-31 91 19 54 c11 32 25 55 34 57 21 4 21 -13 2 -68 -19 -53
-19 -70 -1 -70 13 0 34 44 65 143 14 41 41 51 41 14 0 -13 -9 -51 -21 -86 -12
-34 -19 -65 -16 -68 13 -12 33 7 46 43 42 119 54 144 67 144 8 0 14 -7 14 -15z
m-492 -47 c5 -7 22 -48 37 -90 25 -70 40 -89 57 -72 4 3 -5 37 -19 75 -20 53
-23 73 -15 81 17 17 25 5 57 -82 33 -88 30 -84 50 -77 13 6 13 13 -5 59 -19
50 -15 79 8 64 18 -11 92 -215 92 -252 0 -87 -81 -161 -166 -151 -32 3 -61 18
-111 55 -37 28 -79 62 -92 76 -22 23 -23 26 -6 32 10 4 25 3 34 -3 9 -5 26
-16 38 -24 44 -27 45 1 3 106 -44 112 -47 128 -23 123 10 -2 26 -25 38 -58 12
-33 28 -56 38 -58 23 -5 22 4 -13 95 -31 79 -37 113 -21 113 5 0 13 -6 19 -12z" data-index="3" style="visibility: visible; opacity: 1;"></path>
<path d="M700 245 c0 -16 35 -42 64 -47 33 -5 29 20 -6 42 -39 24 -58 25 -58
5z" data-index="4" style="visibility: visible;"></path>
<path d="M620 193 c1 -26 37 -103 49 -103 20 0 20 19 0 69 -21 49 -49 69 -49
34z" data-index="5" style="visibility: visible; opacity: 1;"></path>
<path d="M524 154 c-16 -37 -13 -64 6 -64 13 0 30 43 30 76 0 35 -19 29 -36
-12z" data-index="6" style="visibility: visible; opacity: 1;"></path>
</g>
</svg>