<svg xmlns="http://www.w3.org/2000/svg" version="1.1" xmlns:xlink="http://www.w3.org/1999/xlink" xmlns:svgjs="http://svgjs.dev/svgjs" width="1000" height="1000"><g clip-path="url(#SvgjsClipPath1085)"><rect width="1000" height="1000" fill="#ffffff"></rect><g transform="matrix(13.88888888888889,0,0,13.88888888888889,0,0)"><svg xmlns="http://www.w3.org/2000/svg" version="1.1" xmlns:xlink="http://www.w3.org/1999/xlink" xmlns:svgjs="http://svgjs.dev/svgjs" width="72px" height="72px"><svg xmlns="http://www.w3.org/2000/svg" xmlns:xlink="http://www.w3.org/1999/xlink" width="72px" height="72px" viewBox="0 0 72 72" version="1.1">
<g id="surface1">
<path style=" stroke:none;fill-rule:nonzero;fill:rgb(0%,0%,0%);fill-opacity:1;" d="M 24.769531 6.695312 C 24.121094 8.351562 26.566406 15.121094 27.792969 15.121094 C 28.367188 15.121094 28.800781 14.542969 28.800781 13.753906 C 28.800781 11.878906 27.359375 7.703125 26.207031 6.550781 C 25.414062 5.617188 25.199219 5.6875 24.769531 6.695312 Z M 24.769531 6.695312 "></path>
<path style=" stroke:none;fill-rule:nonzero;fill:rgb(0%,0%,0%);fill-opacity:1;" d="M 33.839844 9.71875 C 33.335938 11.160156 33.191406 12.816406 33.40625 13.464844 C 33.839844 14.542969 33.984375 14.542969 34.992188 13.609375 C 35.566406 12.960938 36.214844 11.304688 36.503906 9.863281 C 37.078125 6.265625 34.992188 6.191406 33.839844 9.71875 Z M 33.839844 9.71875 "></path>
<path style=" stroke:none;fill-rule:nonzero;fill:rgb(0%,0%,0%);fill-opacity:1;" d="M 16.558594 13.96875 C 16.558594 15.046875 20.734375 18 22.246094 18 C 23.761719 18 23.039062 15.910156 20.953125 14.472656 C 18.503906 12.742188 16.558594 12.527344 16.558594 13.96875 Z M 16.558594 13.96875 "></path>
<path style=" stroke:none;fill-rule:nonzero;fill:rgb(0%,0%,0%);fill-opacity:1;" d="M 50.472656 16.488281 C 49.894531 16.847656 48.382812 16.992188 47.089844 16.777344 C 45.214844 16.488281 44.566406 16.703125 43.558594 18.214844 C 42.839844 19.296875 41.976562 19.945312 41.328125 19.65625 C 39.097656 18.792969 36.863281 20.160156 35.710938 23.039062 L 34.558594 25.921875 L 33.046875 24.40625 C 32.039062 23.398438 30.960938 23.039062 29.664062 23.257812 C 28.296875 23.542969 27.433594 23.183594 26.425781 21.816406 C 25.34375 20.449219 24.550781 20.160156 23.113281 20.449219 C 22.105469 20.59375 20.230469 20.449219 18.9375 20.015625 C 16.992188 19.296875 16.414062 19.367188 15.121094 20.519531 C 14.328125 21.238281 13.679688 22.609375 13.679688 23.542969 C 13.679688 24.550781 12.816406 25.992188 11.734375 27 L 9.71875 28.726562 L 11.734375 34.34375 C 12.816406 37.441406 13.679688 40.246094 13.679688 40.535156 C 13.679688 40.753906 12.886719 40.679688 11.808594 40.320312 C 10.296875 39.742188 9.71875 39.886719 8.207031 41.398438 C 6.335938 43.273438 6.335938 45.574219 8.207031 47.160156 C 14.328125 52.34375 19.945312 56.449219 21.960938 57.3125 C 26.566406 59.257812 31.246094 58.246094 35.785156 54.433594 C 37.65625 52.847656 38.304688 52.632812 39.960938 53.28125 C 42.910156 54.433594 47.304688 54.144531 50.257812 52.632812 C 53.566406 50.902344 63.070312 42.910156 64.078125 41.039062 C 65.59375 38.230469 62.136719 34.847656 58.679688 35.710938 L 56.878906 36.144531 L 58.679688 31.390625 C 60.984375 25.273438 60.910156 24.046875 58.464844 22.464844 C 57.3125 21.816406 56.519531 20.808594 56.734375 20.304688 C 56.878906 19.800781 56.519531 18.574219 55.871094 17.640625 C 54.648438 15.769531 52.34375 15.335938 50.472656 16.488281 Z M 54 19.800781 C 54 20.375 53.0625 23.472656 51.839844 26.785156 C 49.390625 33.550781 49.175781 34.777344 50.902344 34.414062 C 51.625 34.273438 52.632812 32.472656 53.640625 29.519531 C 54.648438 26.566406 55.65625 24.769531 56.375 24.625 C 58.105469 24.265625 57.886719 26.0625 55.511719 32.398438 C 53.496094 37.585938 53.351562 37.800781 51.046875 37.871094 C 46.871094 37.945312 46.367188 38.089844 44.710938 39.671875 C 42.40625 41.832031 43.847656 43.199219 46.511719 41.398438 C 47.734375 40.609375 49.175781 40.320312 50.398438 40.535156 C 51.550781 40.824219 53.929688 40.390625 56.160156 39.527344 C 59.832031 38.160156 61.921875 38.089844 61.921875 39.527344 C 61.921875 40.246094 51.625 48.960938 49.175781 50.257812 C 47.304688 51.265625 42.121094 51.40625 40.390625 50.398438 C 39.238281 49.824219 39.167969 49.320312 39.742188 46.65625 C 40.390625 43.921875 40.175781 42.695312 38.230469 37.007812 L 36 30.457031 L 37.367188 26.566406 C 38.160156 24.265625 39.167969 22.609375 39.816406 22.464844 C 41.328125 22.175781 41.328125 23.398438 39.960938 27.359375 C 38.59375 31.175781 38.59375 32.398438 39.886719 32.398438 C 40.824219 32.398438 42.335938 29.230469 44.566406 22.105469 C 45.574219 19.152344 47.519531 18.433594 47.519531 21.097656 C 47.519531 22.03125 46.871094 24.769531 46.007812 27.289062 C 45.144531 29.734375 44.640625 31.96875 44.855469 32.183594 C 45.792969 33.046875 47.230469 31.679688 48.167969 29.089844 C 51.191406 20.519531 52.054688 18.71875 52.992188 18.71875 C 53.566406 18.71875 54 19.222656 54 19.800781 Z M 18.574219 23.183594 C 18.9375 23.6875 20.160156 26.640625 21.238281 29.664062 C 23.039062 34.703125 24.121094 36.070312 25.34375 34.847656 C 25.632812 34.632812 24.984375 32.183594 23.976562 29.449219 C 22.535156 25.632812 22.320312 24.191406 22.894531 23.617188 C 24.121094 22.390625 24.695312 23.257812 27 29.519531 C 29.375 35.855469 29.160156 35.566406 30.601562 35.0625 C 31.535156 34.632812 31.535156 34.128906 30.238281 30.816406 C 28.871094 27.214844 29.160156 25.128906 30.816406 26.207031 C 32.113281 27 37.441406 41.6875 37.441406 44.351562 C 37.441406 50.617188 31.609375 55.945312 25.488281 55.222656 C 23.183594 55.007812 21.097656 53.929688 17.496094 51.265625 C 14.832031 49.246094 11.808594 46.800781 10.871094 45.792969 C 9.289062 44.136719 9.214844 43.921875 10.441406 43.488281 C 11.160156 43.199219 12.238281 43.273438 12.886719 43.703125 C 13.535156 44.0625 14.761719 44.855469 15.625 45.433594 C 18.792969 47.375 18.863281 45.359375 15.839844 37.800781 C 12.671875 29.734375 12.457031 28.585938 14.183594 28.945312 C 14.902344 29.089844 16.054688 30.742188 16.921875 33.121094 C 17.785156 35.496094 18.9375 37.152344 19.65625 37.296875 C 21.3125 37.65625 21.238281 37.007812 18.71875 30.457031 C 16.488281 24.769531 16.054688 22.320312 17.207031 22.320312 C 17.566406 22.320312 18.144531 22.753906 18.574219 23.183594 Z M 18.574219 23.183594 "></path>
<path style=" stroke:none;fill-rule:nonzero;fill:rgb(0%,0%,0%);fill-opacity:1;" d="M 50.398438 54.359375 C 50.398438 55.511719 52.921875 57.382812 55.007812 57.742188 C 57.382812 58.105469 57.097656 56.304688 54.574219 54.71875 C 51.769531 52.992188 50.398438 52.921875 50.398438 54.359375 Z M 50.398438 54.359375 "></path>
<path style=" stroke:none;fill-rule:nonzero;fill:rgb(0%,0%,0%);fill-opacity:1;" d="M 44.640625 58.105469 C 44.710938 59.976562 47.304688 65.519531 48.167969 65.519531 C 49.609375 65.519531 49.609375 64.152344 48.167969 60.550781 C 46.65625 57.023438 44.640625 55.585938 44.640625 58.105469 Z M 44.640625 58.105469 "></path>
<path style=" stroke:none;fill-rule:nonzero;fill:rgb(0%,0%,0%);fill-opacity:1;" d="M 37.726562 60.910156 C 36.574219 63.574219 36.792969 65.519531 38.160156 65.519531 C 39.097656 65.519531 40.320312 62.425781 40.320312 60.046875 C 40.320312 57.527344 38.953125 57.960938 37.726562 60.910156 Z M 37.726562 60.910156 "></path>
</g>
</svg></svg></g></g><defs><clipPath id="SvgjsClipPath1085"><rect width="1000" height="1000" x="0" y="0" rx="500" ry="500"></rect></clipPath></defs></svg>